<svg xmlns="http://www.w3.org/2000/svg" width="1064" height="985">
  <path fill="#174475" d="M577 925.33c-10.17 5.26-20.19 10.28-22.25 11.13l-3.75 1.57v-61.85l11.45-6.07c14.65-7.76 44.96-26.35 72.31-44.35l21.46-14.12-19.37-19.07c-76.26-75.1-84.48-82.37-84.97-90.14-.06-.93-.01-1.87.05-2.93.05-.89.1-1.87.1-3-.01-7.08.33-8.6 3.01-13.26 7.51-13.11 25.17-17.95 38.11-10.45 2.68 1.55 25.06 22.64 52.23 49.21 49.57 48.48 52.52 50.96 60.69 50.99 5.4.02 13.91-4.75 17.36-9.73 4.07-5.88 4.72-14.25 1.6-20.69-1.62-3.36-15.11-17.27-51.6-53.21-36.29-35.75-50-49.89-51.67-53.26-1.75-3.57-2.25-6.29-2.23-12.1.03-8.19 1.25-11.4 6.65-17.55 7.76-8.84 22.13-11.73 32.08-6.45 3.21 1.7 19.99 17.72 52.48 50.08 43.64 43.47 50.44 50.35 57.73 50.91 1.37.11 2.75-.01 4.4-.15l.41-.03c13.92-1.15 23.51-16.76 18.17-29.59-1.05-2.55-17.1-19.32-50.92-53.22-48.81-48.93-49.4-49.57-51.05-55.35-3.77-13.14 2.34-26.25 15.02-32.26 6.56-3.11 16.97-3.26 23.4-.35 3.2 1.45 15.78 13.27 46.26 43.46 26.07 25.83 43.46 42.3 46.1 43.66 13.96 7.2 29.74-4.37 29.74-21.81 0-3.72-.72-7.2-2.05-9.95-1.46-3.02-39.93-42-133.25-135.03-72.16-71.94-134.65-134.43-138.87-138.88l-7.67-8.09 18.97-20.45c10.44-11.25 19.45-20.62 20.03-20.82.9-.31 61.55 59.81 239.44 237.35 39.91 39.84 45.82 46.48 51.75 58.21 7.58 14.99 10.58 37.64 7.21 54.37-3.41 16.87-7.48 24.45-30.87 57.44-29.86 42.11-56.15 74.04-83.64 101.58-21.94 21.97-32.89 31.72-60.12 53.47-51.71 41.33-99.46 72.59-153.93 100.78M284.18 568.48c-4.02 3.04-7.39 5.5-7.5 5.49-1.06-.2-115.23-114.48-120.17-120.29-17.31-20.37-24.05-36.14-28.49-66.6-7.01-48.04-8.67-109.53-4.69-172.78 1.28-20.19 1.47-21.4 4.01-25.23 2.69-4.07 7.24-7.02 13.66-8.84 3.29-.94 84.45-25.41 108.5-32.72 6.05-1.84 23.83-7.24 39.5-12.01 46.42-14.11 94.75-28.74 158.5-47.98 37.95-11.45 57.85-16.7 75.5-19.91 13.26-2.41 35.88-5.07 36.64-4.3.22.21-3.27 2.55-7.75 5.2-17.41 10.27-40.81 28.5-64.45 50.19-21.3 19.55-25.43 22.94-30.66 25.18-6.05 2.59-159.22 50.13-230.78 71.62-33.99 10.21-43.82 13.59-44.5 15.3-1.35 3.37-1.81 76.25-.59 93.7 1.96 28.19 5.88 59.14 8.67 68.5 2.29 7.65 7.35 17.38 12.86 24.71 2.57 3.42 32.79 34 67.16 67.97l62.49 61.75-9.3 2.24c-11.27 2.72-28.23 10.99-38.61 18.81M560 606.52V619h-10.83c-5.96 0-11.14-.3-11.5-.67-.37-.36-.67-5.91-.67-12.31v-11.65l-9.75-1.15c-13.38-1.57-25.86-5.28-37.89-11.28-7.36-3.66-11.02-5.2-11.9-7.71-.82-2.33.75-5.5 3.96-11.99.4-.81.82-1.66 1.27-2.58 3.69-7.51 7.11-13.66 7.59-13.66.49 0 3.43 1.48 6.55 3.28 11.9 6.9 23.56 11.03 34.94 12.38l5.27.62-.27-19.3-.27-19.3-9.34-2.35c-23.6-5.93-36.99-14.65-43.55-28.33-2.95-6.16-3.11-7.13-3.11-18.5 0-11.57.12-12.26 3.42-19.29 6.38-13.62 20.32-23.66 39.1-28.16 4.67-1.12 9.72-2.04 11.23-2.04L537 425v-25h22.94l.28 12.25.28 12.25 7.65.76c4.21.42 11.98 1.85 17.25 3.19 10.93 2.77 25.28 9.51 24.77 11.64-.5 2.09-11.25 26.3-12.07 27.16-.39.42-3.83-.77-7.65-2.65-8.07-3.95-18.3-7.25-25.44-8.19l-5.01-.67v38.22l2.75.62c10.63 2.41 24.74 7.09 30.59 10.17 14.63 7.68 22.67 19.59 23.46 34.75 1.11 21.03-8.1 36.63-27.17 46.04-8.14 4.01-12.13 5.19-27.38 8.07-2.19.42-2.25.76-2.25 12.91m-355.94 14.73c-.67 2.06-1.56 3.75-1.98 3.75-2.14 0-22.08-44.69-33.02-74-7.62-20.42-21.67-64.72-20.8-65.59.15-.15 20.41 19.54 45.02 43.76l44.75 44.04-8.53 8.96c-11.93 12.54-21.71 27.55-25.44 39.08M531.33 487l.1.04c1.96.79 3.22 1.3 4.05.9 1.52-.74 1.52-4.61 1.52-15.63v-16.35l-2.75.66c-8 1.93-14.67 7.75-15.8 13.81-1.19 6.34 3.97 12.98 12.88 16.57m29.35 74.34c1.82 1.82 12.02-3.77 15.03-8.24 4.91-7.28 2.04-16.17-6.64-20.56l-.38-.2c-3.67-1.86-5.8-2.94-7.02-2.3-1.67.88-1.67 4.95-1.67 14.57v.72c0 8.44.3 15.64.68 16.01"/>
  <path fill="#2fafb1" d="M631.45 285.4c-16.66-16.39-23.98-23.38-24.29-23.27-.58.2-9.59 9.57-20.03 20.82l-18.97 20.45 7.67 8.09c3.28 3.46 41.81 42.03 92.73 92.85C611.08 347.1 568.63 305 568.34 305c-.35 0-13.76 12.98-29.79 28.84-16.53 16.34-32.38 31.11-36.6 34.09-20.89 14.74-41.4 20.8-67.17 19.84-18.62-.7-32.36-4.51-49.44-13.73-11-5.93-18.38-11.9-32.14-25.96-13.82-14.14-18.21-21.13-18.19-28.99v-.48c0-.84 0-1.61.06-2.37.66-7.83 8.09-15.1 92.07-98.8 84.33-84.05 94.76-94.12 108.86-105.11 20.4-15.91 42.19-26.09 64.04-29.91 12.65-2.22 36.67-1.44 48.96 1.57 4.67 1.15 28.08 8.18 52 15.61 23.92 7.44 52.28 16.22 63 19.52s20.62 6.4 22 6.89 22.08 6.96 46 14.37c23.92 7.42 63.97 19.84 89 27.6 25.03 7.77 46.62 14.92 48 15.91 1.38.98 3.53 3.63 4.79 5.88 2.13 3.81 2.38 6.14 3.72 34.41 1.69 35.5 1.9 81.66.48 104.32-3.93 62.35-15.46 124.87-34.13 185-4.38 14.1-13.63 41.12-14.88 43.44-.54 1-2.14-1.28-5.27-7.5-5.74-11.42-15.9-26.77-27.59-41.7l-9.21-11.76 2.96-9.24c14.95-46.73 25.48-103.23 29.22-156.74 1.23-17.77 1.33-77.8.14-92.46l-.73-8.96-19.5-6.21c-10.72-3.42-35.25-11.18-54.5-17.25-19.25-6.06-53-16.72-75-23.68-125.74-39.79-126.75-40.09-139.15-41.61-20.45-2.52-39.66 3.29-59.24 17.91-9.19 6.86-72.71 68.83-124.29 121.26l-38.87 39.5 2.27 1.86c6.4 5.24 21.43 10.64 29.63 10.64 6.26 0 14.01-1.92 21.15-5.23 5.93-2.75 10.89-7.39 56.75-53.12l50.24-50.1 21.76 21.53c13.71 13.56 27.67 27.4 41.7 41.32M284.18 568.48c10.38-7.82 27.34-16.09 38.61-18.81l9.29-2.24.07.07 10.17.6c15.65.93 26.89 4.96 40.18 14.4 15.49 11.01 28.99 30.69 32.55 47.46.53 2.5 1.18 5.51 1.45 6.69.4 1.75 1.83 2.45 7.85 3.78 21.58 4.81 43.23 21.91 53.5 42.27 3.09 6.12 6.42 16.96 7.63 24.83.58 3.78.95 4.15 5.71 5.84 11.94 4.24 29.95 17.79 40.25 30.28 13.62 16.51 20.12 37.19 17.68 56.23-2.33 18.15-7.56 28.63-22.35 44.7-5.1 5.54-12.09 13.26-15.53 17.15l-6.27 7.07 9.77 5.99c12.44 7.63 35.67 20.21 37.33 20.21.57 0 1.98-.54 4.08-1.55l-5.15 2.73v60.6c-.18-.01-.36-.02-.54-.04-3.09-.3-6.02-2.18-12.06-5.12-63.49-30.93-132.71-75.71-186.65-120.72-37.1-30.97-60.72-55.26-93.67-96.3-23.81-29.66-27.97-38.2-28.82-59.15-.41-10.22-.16-13.24 1.64-19.81 4.34-15.81 12.48-28.03 31.23-46.88 7.63-7.66 13.87-14.29 13.87-14.72 0-.2-5.34-5.65-14.07-14.4 8.81 8.72 14.52 14.28 14.75 14.33.11.01 3.48-2.45 7.5-5.49m75.57 174.21c8.11 7.81 15.2 14.23 15.76 14.26 1.69.08 50.17-49.21 52.01-52.88 4.27-8.53.76-19.96-7.92-25.82-4.2-2.83-5.66-3.25-11.26-3.25-3.9 0-7.7.63-9.64 1.6-1.76.88-14.56 12.91-28.45 26.74L345 728.48Zm-55.36-58.9 2.02 2.28 24.9-24.78c25.51-25.4 28.62-29.35 28.67-36.36.03-4.9-4.69-13.7-9.3-17.36-3.31-2.63-4.8-3.09-11.09-3.41-5.85-.29-8.04.03-11.18 1.67-4.71 2.44-39.55 37.34-41.81 41.87-2.08 4.17-2.02 8.05.19 12.39 1.67 3.26 12.96 18.48 17.6 23.7m137.58 125.45c6.89 4.8 13.06 8.74 13.7 8.75 1.92.02 32.17-33.02 34.34-37.5 2.54-5.25 2.5-11.76-.09-17.49-2.28-5.05-7.06-10.46-11.12-12.59-3.22-1.68-11.06-1.85-14.12-.3-1.2.6-11.71 10.58-23.36 22.16l-21.17 21.06 4.65 3.59c2.56 1.97 10.28 7.51 17.17 12.32M233.24 531.11c-3.67-3.63-7.47-7.38-11.37-11.23-29.77-29.36-58.18-58.06-63.12-63.79l-.17-.2c9.17 9.58 44.88 45.5 74.66 75.22m454.27 326.43c14.32-10.29 28.71-21.23 43.42-32.99 20.91-16.7 32.22-26.32 46.27-39.84-6.82 6.6-13.09 12.42-17.91 16.54-23.65 20.25-47.55 38.99-71.78 56.29m117.34-100.77c9.27-9.93 18.49-20.49 27.85-31.89-3.04 3.79-6.02 7.44-8.89 10.9-4.59 5.53-11.35 12.98-18.96 20.99m-57.24-273.56c69.58 69.5 99.07 99.56 100.34 102.19-1.48-2.77-31.56-33.42-100.34-102.19m124.84 189.44c.74-1.04 1.49-2.09 2.24-3.15 13.8-19.47 20.88-30.09 25.06-38.99-2.01 4.44-4.47 8.86-7.4 13.37-5.34 8.2-12.23 18.14-19.9 28.77M577 925.33c-10.1 5.22-15.95 8.46-20.03 10.11 3.98-1.91 11.95-5.93 20.03-10.11m317.94-373.71c-1.63-2.59-3.6-5.28-6.32-8.55 1.8 1.9 2.85 3.07 3.09 3.43 1.15 1.72 2.23 3.42 3.23 5.12m-755.36-122.8c-5.77-11.48-8.96-23.89-11.56-41.74 2.56 17.57 5.89 30.25 11.56 41.74m766.75 157.61c-.76-6.85-2.21-13.66-4.29-19.81 2.21 6.24 3.6 12.71 4.29 19.81M571.45 865.12c16.41-9.46 40.67-24.46 63.26-39.33-22.56 14.85-47.13 30.1-63.26 39.33m332.61-246.53c.46-1.75.88-3.55 1.28-5.47-.36 1.84-.79 3.66-1.28 5.47"/>
</svg>


